<svg width="64" height="64" viewBox="0 0 64 64" fill="none" xmlns="http://www.w3.org/2000/svg">
<path d="M13.0503 3.17496C11.6753 3.43746 10.7628 3.73746 9.72531 4.24996C8.30031 4.96246 7.68781 5.41246 6.43781 6.68746C2.83781 10.35 1.98781 15.6625 4.26281 20.3125C4.53781 20.8625 4.90031 21.4375 5.07531 21.5875C5.46281 21.9375 5.98781 21.95 6.35031 21.625C6.82531 21.175 6.82531 20.8375 6.31281 19.9375C4.48781 16.6625 4.60031 12.675 6.62531 9.58746C8.01281 7.44996 10.0878 5.94996 12.5628 5.29996C13.7628 4.98746 16.2253 4.98746 17.4378 5.29996C20.2753 6.03746 22.6253 7.94996 23.9878 10.6625C24.6503 11.9625 24.9628 12.2125 25.6128 11.9875C26.4003 11.7125 26.4378 11.1 25.7628 9.73746C25.1378 8.48746 24.6628 7.79996 23.7253 6.79996C22.2378 5.21246 20.2253 4.01246 18.0878 3.42496C16.6503 3.03746 14.3753 2.92496 13.0503 3.17496Z" fill="#333333"/>
<path d="M13.025 7.24995C11.6125 7.62495 10.45 8.29995 9.3625 9.37495C7.8125 10.925 7.0125 12.8875 7 15.1625C7 16.0375 7.0375 16.175 7.3125 16.4375C7.675 16.8125 8.2375 16.85 8.6375 16.5125C8.9 16.3 8.95 16.1375 9.0125 15.0375C9.0875 13.6375 9.3625 12.7125 9.95 11.775C10.7875 10.475 12.1875 9.46245 13.625 9.13745C16.025 8.58745 18.575 9.58745 19.975 11.65C20.175 11.95 20.4375 12.4625 20.5625 12.7875C20.95 13.8 21.6375 14.1375 22.3 13.6125C22.7875 13.225 22.7375 12.625 22.1 11.3625C20.475 8.08745 16.5625 6.32495 13.025 7.24995Z" fill="#333333"/>
<path d="M14.3129 10.3124C14.1379 10.4749 14.0004 10.7249 14.0004 10.8499C14.0004 11.0124 13.8879 11.1124 13.6379 11.1624C12.3754 11.4249 11.5879 13.3374 12.2379 14.5999C12.8629 15.8124 14.3754 16.3874 15.0629 15.6874C15.6254 15.1374 15.3754 14.2249 14.6004 14.0249C14.1129 13.8999 13.8879 13.5874 14.0754 13.2749C14.1879 13.0999 14.4754 13.0499 15.8629 12.9999C17.4254 12.9374 17.5379 12.9249 17.7629 12.6374C18.0879 12.2374 18.0629 11.6749 17.6879 11.3124C17.4379 11.0499 17.2629 10.9999 16.6879 10.9999C16.1504 10.9999 16.0004 10.9624 16.0004 10.8124C16.0004 10.4749 15.4129 9.99995 15.0004 9.99995C14.7629 9.99995 14.5004 10.1124 14.3129 10.3124Z" fill="#333333"/>
<path d="M30.4879 10.95C24.9129 15.4875 18.4379 17.9375 11.0254 18.325C9.62539 18.4 9.31289 18.45 9.03789 18.6625L8.71289 18.925L8.78789 21.675C9.00039 29.1875 11.0129 37.025 14.2754 42.9375C17.9504 49.5875 23.1254 54.35 29.7629 57.175C31.9629 58.1125 31.9879 58.1125 33.3754 57.5625C35.3004 56.8 36.2504 56.2875 36.3754 55.925C36.6379 55.25 36.1879 54.625 35.4379 54.625C35.2379 54.625 34.4379 54.9 33.6629 55.25C32.8879 55.5875 32.1504 55.875 32.0254 55.875C31.3629 55.875 27.6379 54.025 25.7379 52.7625C18.2254 47.75 13.2504 39.15 11.3754 27.925C11.0379 25.875 10.7504 22.9875 10.7504 21.575V20.4L11.6004 20.325C14.1254 20.1 15.2129 19.9625 16.5629 19.6875C21.7879 18.6375 26.9379 16.3125 30.9629 13.175L31.9879 12.375L33.3129 13.375C37.4629 16.5 42.3629 18.6875 47.4379 19.675C48.8129 19.95 50.1129 20.125 52.4254 20.325L53.2879 20.4L53.2129 22.4125C53.0879 25.7375 52.5379 29.3375 51.6129 32.9125C51.1879 34.55 51.2129 34.8 51.8004 35.2C52.1379 35.4125 52.5254 35.375 52.9129 35.1C53.3629 34.775 54.3879 30.375 54.8879 26.7C55.0504 25.5125 55.1629 23.725 55.2129 21.8625L55.2879 18.925L54.9629 18.6625C54.6879 18.45 54.3754 18.4 52.9129 18.325C45.4504 17.95 38.8254 15.375 33.0879 10.6C32.0754 9.76246 31.9254 9.78746 30.4879 10.95Z" fill="#333333"/>
<path d="M30.8628 15.7249C26.3003 18.9249 20.5628 21.1874 15.0003 21.9999C12.5878 22.3499 12.5878 22.3374 12.9253 25.1874C13.6128 30.9249 15.0753 35.9124 17.3878 40.3749C20.3628 46.1124 24.5628 50.2999 29.9628 52.9499C30.7253 53.3249 31.5253 53.6624 31.7253 53.6999C32.1628 53.7874 34.3878 52.8749 34.8503 52.4124C35.2253 52.0374 35.2128 51.4499 34.8128 51.0624C34.4003 50.6374 34.0378 50.6749 32.9503 51.2124L32.0128 51.6749L31.2503 51.3374C30.2253 50.8999 28.1253 49.6374 26.9628 48.7624C21.7003 44.8249 17.9753 38.7374 16.0503 30.9624C15.4253 28.3874 14.7378 23.9999 14.9753 23.9999C15.0253 23.9999 15.7253 23.8874 16.5128 23.7374C21.7628 22.7999 26.8128 20.7999 31.1003 17.9874L32.0003 17.3874L33.3128 18.2374C37.3878 20.8874 42.5878 22.8999 47.5878 23.7499C48.3878 23.8874 49.0753 24.0374 49.1128 24.0624C49.3253 24.2874 48.3003 30.1249 47.6253 32.4999C47.4253 33.2249 47.2503 33.9624 47.2503 34.1374C47.2503 34.8499 48.2753 35.2624 48.8628 34.7749C49.6753 34.1249 51.4753 24.3999 51.0753 22.8374C50.9628 22.3624 50.6878 22.2624 48.8378 21.9874C44.9753 21.4249 41.1878 20.2249 37.7003 18.4749C36.0628 17.6624 35.6128 17.3999 33.8003 16.2249C32.0253 15.0749 31.8378 15.0499 30.8628 15.7249Z" fill="#333333"/>
<path d="M35.7875 30.7749L32 34.5499L30.2125 32.7749C28.65 31.2249 28.3625 30.9999 28.0125 30.9999C27.475 30.9999 27 31.4749 27 32.0249C27 32.3874 27.25 32.6874 29.2875 34.7124C31.3625 36.7999 31.6125 36.9999 32 36.9999C32.4 36.9999 32.7375 36.6874 36.7125 32.7124C40.6 28.8249 41 28.3999 41 28.0249C41 27.4749 40.525 26.9999 39.975 26.9999C39.6125 26.9999 39.2 27.3749 35.7875 30.7749Z" fill="#333333"/>
<path d="M47.213 37.1375C45.613 37.375 43.5755 38.175 42.138 39.15C41.113 39.8375 39.363 41.7375 38.738 42.8125C37.463 45.0375 37.063 46.5 37.0755 49C37.0755 51 37.2255 51.8375 37.888 53.4875C38.463 54.9125 39.313 56.1875 40.5005 57.3875C42.1505 59.075 44.088 60.1625 46.388 60.7125C47.813 61.05 50.488 61.025 51.8755 60.65C54.2255 60.0125 55.738 59.1375 57.438 57.4375C59.138 55.7375 60.013 54.2125 60.6505 51.875C61.038 50.4 61.0505 47.5375 60.6505 46.1125C59.363 41.4125 55.688 38 51.038 37.1875C49.888 36.9875 48.3755 36.9625 47.213 37.1375ZM51.3755 39.3C52.6255 39.6375 53.4755 40 54.413 40.625C59.038 43.6375 60.3755 49.8375 57.3755 54.4125C53.9005 59.75 46.488 60.5375 41.9505 56.0625C40.013 54.15 39.063 51.8125 39.0755 49C39.0755 46.8125 39.513 45.275 40.613 43.6C42.113 41.3 44.488 39.7 47.188 39.175C48.2505 38.975 50.4005 39.025 51.3755 39.3Z" fill="#333333"/>
<path d="M47.2504 41.1999C45.8629 41.4874 44.4504 42.2749 43.3629 43.3624C40.2254 46.5124 40.2254 51.4874 43.3629 54.6374C46.5129 57.7749 51.5004 57.7749 54.6254 54.6374C57.7879 51.4624 57.7879 46.5374 54.6254 43.3624C52.6879 41.4124 49.9504 40.6124 47.2504 41.1999ZM50.4379 43.1874C52.5879 43.7499 54.2504 45.4249 54.8129 47.5874C55.6254 50.6999 53.6379 53.9749 50.4379 54.8124C47.3004 55.6249 44.0254 53.6374 43.1879 50.4374C42.0754 46.1499 46.1504 42.0749 50.4379 43.1874Z" fill="#333333"/>
<path d="M48.3127 44.3125C48.1377 44.475 48.0002 44.7 48.0002 44.8C48.0002 44.9 47.8377 45.0125 47.6377 45.0625C47.0502 45.1875 46.3002 45.8 46.0127 46.4C45.4752 47.525 45.8252 48.825 46.8627 49.5625C47.3377 49.9 47.5127 49.95 48.5877 50C49.5502 50.05 49.8127 50.1 49.9252 50.2875C50.0252 50.4375 50.0252 50.5625 49.9252 50.725C49.8127 50.9 49.5252 50.95 48.1377 51C46.5752 51.0625 46.4627 51.075 46.2377 51.3625C45.9127 51.7625 45.9377 52.325 46.3127 52.6875C46.5502 52.9375 46.7377 53 47.2752 53C47.9002 53 47.9502 53.025 48.1252 53.4125C48.4877 54.1875 49.5127 54.1875 49.8752 53.4125C50.0002 53.15 50.1877 52.9875 50.4002 52.9375C50.9627 52.8125 51.7002 52.175 51.9877 51.6C52.5252 50.475 52.1752 49.175 51.1377 48.4375C50.6627 48.1 50.4877 48.05 49.4127 48C48.4502 47.95 48.1877 47.9 48.0752 47.7125C47.9752 47.5625 47.9752 47.4375 48.0752 47.275C48.1877 47.1 48.4752 47.05 49.8627 47C51.4252 46.9375 51.5377 46.925 51.7627 46.6375C52.0877 46.2375 52.0627 45.675 51.6877 45.3125C51.4377 45.05 51.2627 45 50.6877 45C50.1502 45 50.0002 44.9625 50.0002 44.8125C50.0002 44.475 49.4127 44 49.0002 44C48.7627 44 48.5002 44.1125 48.3127 44.3125Z" fill="#333333"/>
</svg>
